<svg xmlns="http://www.w3.org/2000/svg" width="42" height="41" viewBox="0 0 42 41">
  <g id="discord" transform="translate(0.232 -0.308)">
    <ellipse id="Ellipse_56" data-name="Ellipse 56" cx="21" cy="20.5" rx="21" ry="20.5" transform="translate(-0.232 0.308)" fill="#6f85d5"/>
    <path id="Shape" d="M55.39,75.325s-.726-.887-1.331-1.671A6.377,6.377,0,0,0,57.709,71.2a11.451,11.451,0,0,1-2.32,1.217,13.059,13.059,0,0,1-2.925.887,13.828,13.828,0,0,1-5.225-.021,16.656,16.656,0,0,1-2.965-.887,11.7,11.7,0,0,1-1.473-.7c-.061-.041-.121-.062-.182-.1a.279.279,0,0,1-.081-.062c-.363-.206-.565-.351-.565-.351a6.29,6.29,0,0,0,3.53,2.434c-.605.784-1.352,1.712-1.352,1.712A7.288,7.288,0,0,1,38,72.19a28.092,28.092,0,0,1,2.9-12.024A9.83,9.83,0,0,1,46.574,58l.2.247a13.521,13.521,0,0,0-5.306,2.7s.444-.247,1.19-.6a14.887,14.887,0,0,1,4.579-1.3,1.946,1.946,0,0,1,.343-.041,16.7,16.7,0,0,1,4.075-.041,16.189,16.189,0,0,1,6.072,1.98,13.344,13.344,0,0,0-5.023-2.619l.282-.33a9.83,9.83,0,0,1,5.669,2.166,28.092,28.092,0,0,1,2.9,12.024A7.347,7.347,0,0,1,55.39,75.325Zm-9.332-9.281a2.149,2.149,0,1,0,2.014,2.145A2.078,2.078,0,0,0,46.057,66.044Zm7.206,0a2.149,2.149,0,1,0,2.014,2.145A2.078,2.078,0,0,0,53.263,66.044Z" transform="translate(-28.925 -45.809)" fill="#f7f8f7"/>
  </g>
</svg>
